<?xml version="1.0" encoding="utf-8"?>
<!-- Generator: Adobe Illustrator 18.0.0, SVG Export Plug-In . SVG Version: 6.00 Build 0)  -->
<!DOCTYPE svg PUBLIC "-//W3C//DTD SVG 1.1//EN" "http://www.w3.org/Graphics/SVG/1.1/DTD/svg11.dtd">
<svg version="1.1" id="Слой_1" xmlns="http://www.w3.org/2000/svg" xmlns:xlink="http://www.w3.org/1999/xlink" x="0px" y="0px"
	 viewBox="0 0 95 95" enable-background="new 0 0 95 95" xml:space="preserve">
<g>
	<path fill="none" stroke="#ffffff" stroke-linecap="round" stroke-linejoin="round" stroke-miterlimit="22.9256" d="M47.5,0.5
		c26,0,47,21,47,47s-21,47-47,47s-47-21-47-47S21.5,0.5,47.5,0.5L47.5,0.5z"/>
	<path fill="none" stroke="#ffffff" stroke-linecap="round" stroke-linejoin="round" stroke-miterlimit="22.9256" d="M18.4,25.6
		h58.3c1.3,0,2.4,1.1,2.4,2.4v34.6H16V28C16,26.7,17.1,25.6,18.4,25.6L18.4,25.6z"/>
	<path fill="none" stroke="#ffffff" stroke-linecap="round" stroke-linejoin="round" stroke-miterlimit="22.9256" d="M18.8,25.6
		h57.4c1.5,0,2.8,1.3,2.8,2.8v37.8c0,1.5-1.3,2.8-2.8,2.8H18.8c-1.5,0-2.8-1.3-2.8-2.8V28.4C16,26.9,17.2,25.6,18.8,25.6L18.8,25.6z
		"/>
	<path fill="none" stroke="#ffffff" stroke-linecap="round" stroke-linejoin="round" stroke-miterlimit="22.9256" d="M37.4,69
		c3.4,0,6.7,0,10.1,0c3.4,0,6.7,0,10.1,0c0.6,1.2,1.2,2.3,1.8,3.5c0.6,1.2,1.2,2.3,1.8,3.5c-4.5,0-9.1,0-13.6,0c-4.5,0-9.1,0-13.6,0
		c0.6-1.2,1.2-2.3,1.8-3.5C36.2,71.3,36.8,70.1,37.4,69L37.4,69z"/>
	<path fill="none" stroke="#ffffff" stroke-linecap="round" stroke-linejoin="round" stroke-miterlimit="22.9256" d="M28.3,62.5h6.1
		V51h-6.1V62.5L28.3,62.5z M39.1,62.5h6.1V45.3h-6.1V62.5L39.1,62.5z M49.8,62.5h6.1v-23h-6.1V62.5L49.8,62.5z M60.6,62.5h6.1V31.8
		h-6.1V62.5L60.6,62.5z"/>
</g>
</svg>
