<?xml version="1.0" encoding="utf-8"?>
<!-- Generator: Adobe Illustrator 18.0.0, SVG Export Plug-In . SVG Version: 6.00 Build 0)  -->
<!DOCTYPE svg PUBLIC "-//W3C//DTD SVG 1.1//EN" "http://www.w3.org/Graphics/SVG/1.1/DTD/svg11.dtd">
<svg version="1.1" id="Слой_1" xmlns="http://www.w3.org/2000/svg" xmlns:xlink="http://www.w3.org/1999/xlink" x="0px" y="0px"
	 viewBox="0 0 95 95" enable-background="new 0 0 95 95" xml:space="preserve">
<g>
	<path fill="none" stroke="#333333" stroke-linecap="round" stroke-linejoin="round" stroke-miterlimit="22.9256" d="M79.1,54.4
		L76,45.9l4.6-1.7L69.1,30.5L69,48.4l4.6-1.7l3.1,8.5L79.1,54.4L79.1,54.4z M69.9,20v7.8 M78.3,23.4l-5.5,5.5 M81.8,31.8H74
		 M61.3,23.4l5.5,5.5 M57.8,31.8h7.8 M61.6,40.2l5.5-5.5"/>
	<path fill="none" stroke="#333333" stroke-linecap="round" stroke-linejoin="round" stroke-miterlimit="22.9256" d="M47.5,0.5
		c26,0,47,21,47,47c0,26-21,47-47,47s-47-21-47-47C0.5,21.5,21.5,0.5,47.5,0.5L47.5,0.5z"/>
	<path fill="none" stroke="#333333" stroke-linecap="round" stroke-linejoin="round" stroke-miterlimit="22.9256" d="M16.6,66.9h8.2
		V51.3h-8.2V66.9L16.6,66.9z M31.1,66.9h8.2V43.6h-8.2V66.9L31.1,66.9z M45.5,66.9h8.2V36h-8.2V66.9L45.5,66.9z M60,66.9h8.2
		 M68.2,66.9V51 M60,43.1v23.7"/>
</g>
</svg>
