<?xml version="1.0" encoding="utf-8"?>
<!-- Generator: Adobe Illustrator 18.0.0, SVG Export Plug-In . SVG Version: 6.00 Build 0)  -->
<!DOCTYPE svg PUBLIC "-//W3C//DTD SVG 1.1//EN" "http://www.w3.org/Graphics/SVG/1.1/DTD/svg11.dtd">
<svg version="1.1" id="Слой_1" xmlns="http://www.w3.org/2000/svg" xmlns:xlink="http://www.w3.org/1999/xlink" x="0px" y="0px"
	 viewBox="0 0 95 95" enable-background="new 0 0 95 95" xml:space="preserve">
<g>
	<path fill="none" stroke="#ffffff" stroke-linecap="round" stroke-linejoin="round" stroke-miterlimit="22.9256" d="M47.5,0.5
		c26,0,47,21,47,47s-21,47-47,47c-26,0-47-21-47-47S21.5,0.5,47.5,0.5L47.5,0.5z"/>
	<path fill="none" stroke="#ffffff" stroke-linecap="round" stroke-linejoin="round" stroke-miterlimit="22.9256" d="M21.2,42.5
		c1.8,0,3.3,1.5,3.3,3.3c0,1.8-1.5,3.3-3.3,3.3s-3.3-1.5-3.3-3.3C17.9,43.9,19.4,42.5,21.2,42.5L21.2,42.5z M25.3,53.1v6.6v1.2v9.8
		h-2.9c0-3.3,0-6.5,0-9.8c-0.3-0.4-0.7-0.6-1.1-0.6c-0.4,0-1.1,0.1-1.2,0.6v9.8h-2.9v-9.8v-1.2v-6 M25.5,59.8c2.3,0,2.5-1.3,2.5-2.8
		v-4.8c0-1.7-0.9-2.3-2.6-2.3 M17.3,49.9c0,0,1.2,1.9,3.9,1.9c2.7,0,4.1-1.9,4.1-1.9 M17.2,59.8c-2.3,0-2.5-1.3-2.5-2.8v-4.8
		c0-1.7,0.9-2.3,2.6-2.3"/>
	<path fill="none" stroke="#ffffff" stroke-linecap="round" stroke-linejoin="round" stroke-miterlimit="22.9256" d="M43.3,34.6
		c2.3,0,4.2,1.9,4.2,4.2c0,2.3-1.9,4.2-4.2,4.2c-2.3,0-4.2-1.9-4.2-4.2C39,36.5,40.9,34.6,43.3,34.6L43.3,34.6z M48.6,48.2v8.5v1.5
		v12.5h-3.7c0-4.2,0-8.3,0-12.5c-0.3-0.6-1-0.8-1.4-0.8c-0.5,0-1.4,0.1-1.5,0.8v12.5h-3.7V58.2v-1.6V49 M48.7,56.8
		c3,0,3.1-1.7,3.1-3.6V47c0-2.1-1.2-2.9-3.3-2.9 M38.3,44.1c0,0,1.5,2.5,5,2.5c3.5,0,5.3-2.5,5.3-2.5 M38.2,56.8
		c-3,0-3.1-1.7-3.1-3.6V47c0-2.1,1.2-2.9,3.3-2.9"/>
	<path fill="none" stroke="#ffffff" stroke-linecap="round" stroke-linejoin="round" stroke-miterlimit="22.9256" d="M68.9,22.9
		c3.1,0,5.6,2.5,5.6,5.6S71.9,34,68.9,34s-5.6-2.5-5.6-5.6S65.8,22.9,68.9,22.9L68.9,22.9z M75.9,40.8v11.2v2v16.6H71
		c0-5.5,0-11.1,0-16.6c-0.4-0.7-1.3-1-1.9-1c-0.7,0-1.8,0.1-2,1v16.6h-4.9V54.1V52V41.9 M76.1,52.2c4,0,4.2-2.3,4.2-4.8v-8.2
		c0-2.8-1.6-3.8-4.4-3.8 M62.3,35.5c0,0,2,3.3,6.6,3.3c4.6,0,7-3.3,7-3.3 M62.1,52.2c-4,0-4.2-2.3-4.2-4.8v-8.2
		c0-2.8,1.6-3.8,4.4-3.8"/>
</g>
</svg>
