<?xml version="1.0" encoding="utf-8"?>
<!-- Generator: Adobe Illustrator 18.0.0, SVG Export Plug-In . SVG Version: 6.00 Build 0)  -->
<!DOCTYPE svg PUBLIC "-//W3C//DTD SVG 1.1//EN" "http://www.w3.org/Graphics/SVG/1.1/DTD/svg11.dtd">
<svg version="1.1" id="Слой_1" xmlns="http://www.w3.org/2000/svg" xmlns:xlink="http://www.w3.org/1999/xlink" x="0px" y="0px"
	 viewBox="0 0 95 95" enable-background="new 0 0 95 95" xml:space="preserve">
<g>
	<path fill-rule="evenodd" clip-rule="evenodd" fill="#F5D917" d="M35.1,0.2c-3.5,0.8-5.3,3.5-7.1,5.4c-2.1,2.1-4,3.2-8.1,4.2
		c-10.4,2.5-8.2,6.4-11,13.6c-2.3,5.8-10.1,7.3-8.5,15.6C1,42.5,2.6,45.5,2,49.3C0.4,58-2.9,59,5.5,66.9c6.3,6,3.4,12.7,8.6,16
		c2.7,1.7,6.1,1.9,9.2,3.1c6,2.3,7.4,10.2,15.7,8.6c3.5-0.7,6.6-2.3,10.6-1.6c7,1.3,9.7,4.5,15.9-2.1c3.2-3.4,4.8-4.7,9.7-5.9
		c3.8-0.9,6.2-1.7,8-4.4c1.6-2.4,2-6.4,3.1-9.2c2.3-5.9,10.3-7.3,8.5-15.8c-0.7-3.6-2.3-6.4-1.5-10.5c0.6-3.2,2.5-7.4,1.5-10.7
		c-1-3-3.7-5.2-5.4-6.9c-6.2-6.3-2.8-12.4-8.7-15.9c-2.7-1.6-6.3-1.8-9.2-3.1c-5.9-2.7-6.9-10.1-15.7-8.3C52,1,49.2,2.6,45.3,1.8
		C42,1.1,38.6-0.6,35.1,0.2L35.1,0.2z"/>
	<path fill-rule="evenodd" clip-rule="evenodd" fill="#F7E35C" d="M47.6,92.9c0.7,0,1.3,0,2,0.2c7,1.3,9.7,4.5,15.9-2.1
		c3.2-3.4,4.8-4.7,9.7-5.9c3.8-0.9,6.2-1.7,8-4.4c1.6-2.4,2-6.4,3.1-9.2c2.3-5.9,10.3-7.3,8.5-15.8c-0.7-3.6-2.3-6.4-1.5-10.5
		c0.6-3.2,2.5-7.4,1.5-10.7c-1-3-3.7-5.2-5.4-6.9c-6.2-6.3-2.8-12.4-8.7-15.9c-2.7-1.6-6.3-1.8-9.2-3.1c-5.9-2.7-6.9-10.1-15.7-8.3
		c-2.8,0.6-5.2,1.7-8,1.7V92.9L47.6,92.9z"/>
	<path fill-rule="evenodd" clip-rule="evenodd" fill="#FFFFFF" d="M47.5,9c21.2,0,38.4,17.2,38.4,38.5C85.9,68.8,68.7,86,47.5,86
		C26.3,86,9.1,68.8,9.1,47.5C9.1,26.2,26.3,9,47.5,9L47.5,9z"/>
	<path fill-rule="evenodd" clip-rule="evenodd" fill="#F5D917" d="M47.5,10.6c20.3,0,36.8,16.5,36.8,36.9
		c0,20.4-16.5,36.9-36.8,36.9c-20.3,0-36.8-16.5-36.8-36.9C10.7,27.1,27.2,10.6,47.5,10.6L47.5,10.6z"/>
	<path fill-rule="evenodd" clip-rule="evenodd" fill="#F7E35C" d="M47.6,10.6c20.3,0,36.8,16.5,36.8,36.9
		c0,20.3-16.5,36.8-36.8,36.9V10.6L47.6,10.6z"/>
	
		<polygon fill="none" stroke="#FFFFFF" stroke-width="2" stroke-linecap="round" stroke-linejoin="round" stroke-miterlimit="22.9256" points="
		34.9,61.7 60.8,61.7 60.8,67.7 34.9,67.7 34.9,61.7 	"/>
	
		<path fill="none" stroke="#FFFFFF" stroke-width="2" stroke-linecap="round" stroke-linejoin="round" stroke-miterlimit="22.9256" d="
		M68.1,40.8l-7.9,18.3h-2.9h-3.5h-3.1h-2.9h-3.5h-3.1h-2.9h-3.5L27,40.8l14.9,8.6l1.2-3.4L47.8,33L52.6,46l1.1,3L68.1,40.8
		L68.1,40.8z M24.7,35.4c1.3,0,2.3,1,2.3,2.3c0,1.3-1,2.3-2.3,2.3s-2.3-1-2.3-2.3C22.4,36.4,23.5,35.4,24.7,35.4L24.7,35.4z
		 M48,26.7c1.3,0,2.3,1,2.3,2.3c0,1.3-1,2.3-2.3,2.3c-1.3,0-2.3-1-2.3-2.3C45.7,27.7,46.7,26.7,48,26.7L48,26.7z M70.5,35.4
		c1.3,0,2.3,1,2.3,2.3c0,1.3-1,2.3-2.3,2.3c-1.3,0-2.3-1-2.3-2.3C68.2,36.4,69.2,35.4,70.5,35.4L70.5,35.4z"/>
</g>
</svg>
