<?xml version="1.0" encoding="utf-8"?>
<!DOCTYPE svg PUBLIC "-//W3C//DTD SVG 1.1//EN" "http://www.w3.org/Graphics/SVG/1.1/DTD/svg11.dtd">
<svg version="1.1" baseProfile="full"
 xmlns="http://www.w3.org/2000/svg"
 xmlns:xlink="http://www.w3.org/1999/xlink"
 xmlns:ev="http://www.w3.org/2001/xml-events" 
  height="11px" 
  width="11px" 
>
<path fill="rgb( 0, 191, 255 )"
 d="M10.989,9.62899999999991 C10.989,9.62899999999991 9.62899999999991,10.989 9.62899999999991,10.989 C9.62899999999991,10.989 5.5,6.86000000000013 5.5,6.86000000000013 C5.5,6.86000000000013 1.37100000000009,10.989 1.37100000000009,10.989 C1.37100000000009,10.989 0.01099999999997,9.62899999999991 0.01099999999997,9.62899999999991 C0.01099999999997,9.62899999999991 4.1400000000001,5.5 4.1400000000001,5.5 C4.1400000000001,5.5 0.01099999999997,1.37100000000009 0.01099999999997,1.37100000000009 C0.01099999999997,1.37100000000009 1.37100000000009,0.01099999999997 1.37100000000009,0.01099999999997 C1.37100000000009,0.01099999999997 5.5,4.13999999999987 5.5,4.13999999999987 C5.5,4.13999999999987 9.62899999999991,0.01099999999997 9.62899999999991,0.01099999999997 C9.62899999999991,0.01099999999997 10.989,1.37100000000009 10.989,1.37100000000009 C10.989,1.37100000000009 6.8599999999999,5.5 6.8599999999999,5.5 C6.8599999999999,5.5 10.989,9.62899999999991 10.989,9.62899999999991 Z "/>
</svg>
