<?xml version="1.0" encoding="utf-8"?>
<!-- Generator: Adobe Illustrator 18.0.0, SVG Export Plug-In . SVG Version: 6.00 Build 0)  -->
<!DOCTYPE svg PUBLIC "-//W3C//DTD SVG 1.1//EN" "http://www.w3.org/Graphics/SVG/1.1/DTD/svg11.dtd">
<svg version="1.1" id="Слой_1" xmlns="http://www.w3.org/2000/svg" xmlns:xlink="http://www.w3.org/1999/xlink" x="0px" y="0px"
	 viewBox="0 0 52 42" enable-background="new 0 0 52 42" xml:space="preserve">
<g>
	<path fill="#333333" d="M13.9,14.1c1.9-0.7,3.8-1.5,5.8-2.3c2-0.8,3.9-1.7,5.9-2.6l0.3,0.7l-0.3-0.7l0,0c1.1-0.5,2.2-1.1,3.3-1.7
		c1.1-0.6,2.2-1.2,3.4-1.8l0.3,0.6l-0.3-0.6c0.3-0.2,0.8-0.1,0.9,0.3c0.1,0.1,0.1,0.3,0.1,0.4l0,7.9c0.8,0.6,1.5,1.6,2,2.7
		c0.5,1.2,0.8,2.5,0.8,4c0,1.5-0.3,2.8-0.8,4c-0.5,1.1-1.2,2-2,2.6l0,8h0c0,0.4-0.3,0.7-0.7,0.7c-0.1,0-0.3,0-0.4-0.1
		c-1.1-0.6-2.2-1.2-3.3-1.8c-1.1-0.6-2.2-1.1-3.4-1.7c-2-0.9-3.9-1.8-5.9-2.5c-1.9-0.7-3.8-1.5-5.7-2.2h0v0h0v0L14,28l2.3,8.9l0,0
		c0.1,0.4-0.1,0.8-0.5,0.9c-0.1,0-0.2,0-0.2,0l-3.7,0v0c-0.3,0-0.6-0.3-0.7-0.6l-2.4-9.3l-2.1,0c-1.8,0-3.5-0.8-4.7-2
		c-1.2-1.2-2-3-2-4.8l0-0.1v0h0c0-1.9,0.7-3.7,1.9-4.9c1.2-1.3,2.9-2.1,4.7-2.1L13.9,14.1L13.9,14.1z M20.3,13.1
		c-1.8,0.7-3.6,1.4-5.5,2.1l0.1,11.4c1.8,0.7,3.7,1.4,5.5,2.1c2,0.8,4,1.7,6,2.6c1.1,0.5,2.3,1.1,3.4,1.7c0.8,0.4,1.6,0.8,2.4,1.3
		l0-7.1c0,0,0-0.1,0-0.1L32,14.6h0l0-0.1l0-7c-0.8,0.4-1.6,0.9-2.4,1.3c-1.1,0.6-2.3,1.2-3.4,1.7l0,0v0
		C24.2,11.5,22.2,12.3,20.3,13.1L20.3,13.1z M25.7,9.2c0.3-0.1,0.7,0,0.9,0.4L25.7,9.2L25.7,9.2z M33.4,16.3l0,9.2
		c0.3-0.4,0.5-0.8,0.7-1.2c0.4-1,0.7-2.1,0.7-3.4c0-1.3-0.3-2.4-0.7-3.4C33.9,17.1,33.7,16.6,33.4,16.3L33.4,16.3z M13.4,26.6l0-5.6
		l0-5.5l-6.7,0c-1.5,0-2.8,0.6-3.7,1.6c-1,1-1.6,2.4-1.5,3.9h0v0h0v0l0,0.1C1.4,22.7,2,24,3,25c1,1,2.3,1.6,3.8,1.6l2.5,0
		c0,0,0.1,0,0.1,0l3.7,0v0l0.1,0L13.4,26.6L13.4,26.6z M14.1,14.8l0.7,0v0L14.1,14.8L14.1,14.8z M12.6,28l-2.3,0l2.2,8.4l2.3,0
		L12.6,28L12.6,28z M38.5,4.5c-0.3,0.2-0.4,0.6-0.3,1c0.2,0.3,0.6,0.5,0.9,0.3l7.3-4.4c0.3-0.2,0.4-0.6,0.3-1s-0.6-0.5-0.9-0.3
		L38.5,4.5L38.5,4.5z M41.7,12.1c-0.4,0.1-0.6,0.5-0.5,0.9c0.1,0.4,0.5,0.6,0.9,0.5l8.2-2.3c0.4-0.1,0.6-0.5,0.5-0.9
		c-0.1-0.4-0.5-0.6-0.9-0.5L41.7,12.1L41.7,12.1z M42.9,20.3c-0.4,0-0.7,0.3-0.7,0.7s0.3,0.7,0.7,0.7h8.4c0.4,0,0.7-0.3,0.7-0.7
		s-0.3-0.7-0.7-0.7H42.9L42.9,20.3z M42,28.5c-0.4-0.1-0.8,0.1-0.9,0.5c-0.1,0.4,0.1,0.8,0.5,0.9l8.2,2.3c0.4,0.1,0.8-0.1,0.9-0.5
		c0.1-0.4-0.1-0.8-0.5-0.9L42,28.5L42,28.5z M39,36.3c-0.3-0.2-0.8-0.1-0.9,0.3c-0.2,0.3-0.1,0.8,0.3,1l7.3,4.4
		c0.3,0.2,0.8,0.1,0.9-0.3c0.2-0.3,0.1-0.8-0.3-1L39,36.3L39,36.3z"/>
</g>
</svg>
