<?xml version="1.0" encoding="utf-8"?>
<!-- Generator: Adobe Illustrator 18.0.0, SVG Export Plug-In . SVG Version: 6.00 Build 0)  -->
<!DOCTYPE svg PUBLIC "-//W3C//DTD SVG 1.1//EN" "http://www.w3.org/Graphics/SVG/1.1/DTD/svg11.dtd">
<svg version="1.1" id="Слой_1" xmlns="http://www.w3.org/2000/svg" xmlns:xlink="http://www.w3.org/1999/xlink" x="0px" y="0px"
	 viewBox="0 0 29 27" enable-background="new 0 0 29 27" xml:space="preserve">
<g>
	<path fill="none" stroke="#333333" stroke-linecap="round" stroke-linejoin="round" stroke-miterlimit="22.9256" d="M1.9,3.1h25.2
		c0.8,0,1.4,0.7,1.4,1.5V25c0,0.8-0.6,1.5-1.4,1.5H1.9c-0.8,0-1.4-0.7-1.4-1.5V4.6C0.5,3.8,1.1,3.1,1.9,3.1L1.9,3.1z"/>
	<path fill="none" stroke="#333333" stroke-linecap="round" stroke-linejoin="round" stroke-miterlimit="22.9256" d="M0.9,3.1h27.2
		c0.2,0,0.4,0.2,0.4,0.5v6.1c0,0.2-0.2,0.5-0.4,0.5H0.9c-0.2,0-0.4-0.2-0.4-0.5V3.5C0.5,3.3,0.7,3.1,0.9,3.1L0.9,3.1z"/>
	<path fill="none" stroke="#333333" stroke-linecap="round" stroke-linejoin="round" stroke-miterlimit="22.9256" d="M3.8,0.5V5
		 M25,0.5V5 M14.5,0.5V5"/>
</g>
</svg>
