<?xml version="1.0" encoding="utf-8"?>
<!-- Generator: Adobe Illustrator 18.0.0, SVG Export Plug-In . SVG Version: 6.00 Build 0)  -->
<!DOCTYPE svg PUBLIC "-//W3C//DTD SVG 1.1//EN" "http://www.w3.org/Graphics/SVG/1.1/DTD/svg11.dtd">
<svg version="1.1" id="Слой_1" xmlns="http://www.w3.org/2000/svg" xmlns:xlink="http://www.w3.org/1999/xlink" x="0px" y="0px"
	 viewBox="0 0 54.3 54.3" enable-background="new 0 0 54.3 54.3" xml:space="preserve">
<g>
	
		<path fill="none" stroke="#333333" stroke-width="0.3322" stroke-linecap="round" stroke-linejoin="round" stroke-miterlimit="22.9256" d="
		M6.3,6.3c8.2-8.2,21.5-8.2,29.8,0c8.2,8.2,8.2,21.5,0,29.6c-8.2,8.2-21.5,8.2-29.8,0C-1.9,27.8-1.9,14.5,6.3,6.3L6.3,6.3z
		 M34.6,37.3l2.8-2.8l4.4,4.4c-0.6,0.2-1.2,0.6-1.7,1.1l0,0c-0.5,0.5-0.9,1.2-1.1,1.8L34.6,37.3L34.6,37.3z M48,54.2l-7.8-7.8
		c-1.8-1.8-1.8-4.7,0-6.5l0,0c1.8-1.8,4.7-1.8,6.5,0l7.5,7.4 M8.6,8.5c7-7,18.3-7,25.3,0c7,7,7,18.3,0,25.2c-7,7-18.3,7-25.3,0
		C1.6,26.8,1.6,15.5,8.6,8.5L8.6,8.5z M8.5,28.3h5.9V21H8.5V28.3L8.5,28.3z M17.8,28.3h5.9V16.7h-5.9V28.3L17.8,28.3z M27.1,28.3H33
		V12.5h-5.9V28.3L27.1,28.3z"/>
</g>
</svg>
