<?xml version="1.0" encoding="utf-8"?>
<!-- Generator: Adobe Illustrator 18.0.0, SVG Export Plug-In . SVG Version: 6.00 Build 0)  -->
<!DOCTYPE svg PUBLIC "-//W3C//DTD SVG 1.1//EN" "http://www.w3.org/Graphics/SVG/1.1/DTD/svg11.dtd">
<svg version="1.1" id="Слой_1" xmlns="http://www.w3.org/2000/svg" xmlns:xlink="http://www.w3.org/1999/xlink" x="0px" y="0px"
	 viewBox="0 0 49.3 58.3" enable-background="new 0 0 49.3 58.3" xml:space="preserve">
<g>
	
		<path fill="none" stroke="#333333" stroke-width="0.3238" stroke-linecap="round" stroke-linejoin="round" stroke-miterlimit="22.9256" d="
		M28.4,58.2v-9.9 M28.4,24.6v-7 M28.4,17.6h6.8L24.8,0.2L14.4,17.6h6.8 M21.2,17.6v7.1 M21.1,48.7l0,9.5 M21.2,58.2h7.2 M23.4,45.8
		h2.2v-2.4c0.9-0.1,1.6-0.4,2.2-0.7c0.6-0.4,1-0.9,1.4-1.4c0.3-0.6,0.5-1.2,0.5-2c0-0.6-0.1-1.2-0.3-1.6c-0.2-0.5-0.5-0.8-0.9-1.2
		c-0.4-0.3-0.8-0.6-1.2-0.9c-0.4-0.2-0.9-0.5-1.3-0.7c-0.4-0.2-0.8-0.4-1.2-0.6c-0.4-0.2-0.6-0.4-0.9-0.7c-0.2-0.3-0.3-0.6-0.3-0.9
		c0-0.4,0.2-0.7,0.5-0.9c0.3-0.2,0.7-0.3,1.3-0.3c0.4,0,0.8,0,1.2,0.1c0.4,0.1,0.8,0.2,1.1,0.3c0.4,0.1,0.8,0.3,1.2,0.5v-2.6
		c-0.3-0.2-0.7-0.3-1.2-0.5c-0.5-0.1-1-0.2-1.5-0.3v-2.2H24V29c-0.6,0.1-1.1,0.2-1.6,0.5c-0.4,0.2-0.8,0.5-1.1,0.9
		c-0.3,0.4-0.5,0.7-0.7,1.2c-0.1,0.4-0.2,0.9-0.2,1.3c0,0.6,0.1,1.2,0.3,1.6c0.2,0.5,0.5,0.9,0.9,1.2c0.4,0.3,0.8,0.6,1.2,0.9
		c0.4,0.3,0.9,0.5,1.3,0.7c0.4,0.2,0.8,0.4,1.2,0.6c0.4,0.2,0.6,0.4,0.9,0.7c0.2,0.3,0.3,0.6,0.3,0.9c0,0.4-0.1,0.7-0.3,0.9
		c-0.2,0.2-0.5,0.4-0.8,0.4c-0.3,0.1-0.7,0.1-1,0.1c-0.4,0-0.8-0.1-1.1-0.2c-0.4-0.1-0.7-0.2-1.1-0.4c-0.3-0.2-0.7-0.3-0.9-0.5
		L20,42.1c0.3,0.2,0.6,0.4,1,0.6c0.3,0.2,0.7,0.3,1.1,0.4c0.4,0.1,0.9,0.2,1.4,0.3V45.8L23.4,45.8z M40.9,58.2h4.3 M40.9,34.1v13.7
		v10.4 M45.1,34.1h4L43,23.7l-6.2,10.4h4 M45.1,58.2V47.7V34.1 M4.2,58.2h4.3 M4.2,34.1v13.7v10.4 M8.5,34.1h4L6.3,23.7L0.2,34.1h4
		 M8.5,58.2V47.7V34.1"/>
</g>
</svg>
