<?xml version="1.0" encoding="utf-8"?>
<!-- Generator: Adobe Illustrator 18.0.0, SVG Export Plug-In . SVG Version: 6.00 Build 0)  -->
<!DOCTYPE svg PUBLIC "-//W3C//DTD SVG 1.1//EN" "http://www.w3.org/Graphics/SVG/1.1/DTD/svg11.dtd">
<svg version="1.1" id="Слой_1" xmlns="http://www.w3.org/2000/svg" xmlns:xlink="http://www.w3.org/1999/xlink" x="0px" y="0px"
	 viewBox="0 0 58.3 35.3" enable-background="new 0 0 58.3 35.3" xml:space="preserve">
<g>
	
		<path fill="none" stroke="#fff" stroke-width="0.3322" stroke-linecap="round" stroke-linejoin="round" stroke-miterlimit="22.9256" d="
		M33.2,29.1l1.3-8.5c0.6-3.8,1.1-7.5,1.7-11.3c-0.1,0-0.2-0.1-0.3-0.1c-0.1,0-0.2-0.1-0.3-0.1c-1.7,3.4-3.4,6.7-5.1,10.1l-3.8,7.6
		c-0.8,0.5-1.4,1.3-1.7,2.3c-0.8,2.4,0.5,5,2.8,5.7c2.3,0.8,4.7-0.5,5.5-2.9C33.6,31.1,33.5,30,33.2,29.1L33.2,29.1z M0.2,30.6
		c0-16.8,13-30.5,29-30.5c16,0,29,13.6,29,30.5 M58.2,30.6H36.6 M21.8,30.6H0.2 M47.6,19.5l4.1-2.5 M39.8,11.3l2.4-4.4 M29.2,8.3v-5
		 M10.7,19.5l-4.1-2.5 M18.5,11.3l-2.4-4.4"/>
</g>
</svg>
