<?xml version="1.0" encoding="utf-8"?>
<!-- Generator: Adobe Illustrator 18.0.0, SVG Export Plug-In . SVG Version: 6.00 Build 0)  -->
<!DOCTYPE svg PUBLIC "-//W3C//DTD SVG 1.1//EN" "http://www.w3.org/Graphics/SVG/1.1/DTD/svg11.dtd">
<svg version="1.1" id="Слой_1" xmlns="http://www.w3.org/2000/svg" xmlns:xlink="http://www.w3.org/1999/xlink" x="0px" y="0px"
	 viewBox="0 0 205 34.8" enable-background="new 0 0 205 34.8" xml:space="preserve">
<g>
	<path fill="#201600" d="M70.8,13.1c0-3.3-1.8-5.8-5.1-5.8c-3.1,0-5.1,2.3-5.1,5.8c0,3.5,2,5.7,5.1,5.7
		C68.8,18.9,70.8,16.6,70.8,13.1L70.8,13.1z M58.6,13.1c0-4.4,3-7.4,7.1-7.4c4.2,0,7.1,3.1,7.1,7.4c0,4.5-3.1,7.4-7.1,7.4
		C61.6,20.5,58.6,17.6,58.6,13.1L58.6,13.1z"/>
	<polygon fill="#201600" points="75.7,5.8 86.6,5.8 86.6,20.3 84.6,20.3 84.6,7.5 77.6,7.5 77.6,20.3 75.7,20.3 75.7,5.8 	"/>
	<polygon fill="#201600" points="93,7.5 88.9,7.5 88.9,5.8 99.6,5.8 99.6,7.5 95,7.5 95,20.3 93,20.3 93,7.5 	"/>
	<path fill="#201600" d="M101.7,5.8h1.9v8.7c0,1,0,1.7,0,2.5h0c0.5-0.7,1.1-1.6,2-2.7l6.4-8.5h1.9v14.5h-2v-9.1c0-1.1,0-1.7,0-2.4h0
		c-0.5,0.7-1.1,1.6-1.9,2.6l-6.7,8.9h-1.7V5.8L101.7,5.8z"/>
	<path fill="#201600" d="M117.5,5.8h1.8l4,5.9c0.6,0.9,1,1.4,1.3,2h0c0.3-0.6,0.7-1.2,1.3-2.1l3.7-5.8h1.8v14.5h-1.9v-8.9
		c0-0.7,0-1.6,0-2.3h0c-0.3,0.5-0.8,1.3-1,1.7l-3.3,5.3h-1l-3.7-5.4c-0.3-0.4-0.7-1-1-1.6h0c0,0.6,0,1.6,0,2.2v9h-2V5.8L117.5,5.8z"
		/>
	<path fill="#201600" d="M134.9,5.8h1.9v8.7c0,1,0,1.7,0,2.5h0c0.5-0.7,1.1-1.6,2-2.7l6.4-8.5h1.9v14.5h-2v-9.1c0-1.1,0-1.7,0-2.4h0
		c-0.5,0.7-1.1,1.6-1.9,2.6l-6.7,8.9h-1.7V5.8L134.9,5.8z"/>
	<path fill="#201600" d="M149.9,19.9v-1.8c0.9,0.5,2,0.8,3.4,0.8c1.9,0,3.3-0.9,3.3-2.7c0-1.6-1.1-2.4-3.6-2.4c-0.3,0-0.9,0-1.3,0
		v-1.6c0.4,0,0.8,0,1.1,0c2.6,0,3.5-1,3.5-2.4c0-1.4-0.9-2.3-2.8-2.3c-1.1,0-2.1,0.3-3.2,0.8l-0.5-1.5c0.9-0.5,2.3-1,3.9-1
		c3.1,0,4.6,1.8,4.6,3.8c0,1.6-0.8,2.7-2.4,3.3v0c1.8,0.3,2.8,1.5,2.8,3.3c0,2.4-1.7,4.3-5.3,4.3C152,20.5,150.8,20.2,149.9,19.9
		L149.9,19.9z"/>
	<path fill="#201600" d="M161.5,5.8h1.8l4,5.9c0.6,0.9,1,1.4,1.3,2h0c0.3-0.6,0.7-1.2,1.3-2.1l3.7-5.8h1.8v14.5h-1.9v-8.9
		c0-0.7,0-1.6,0-2.3h0c-0.3,0.5-0.8,1.3-1,1.7l-3.3,5.3h-1l-3.7-5.4c-0.3-0.4-0.7-1-1-1.6h0c0,0.6,0,1.6,0,2.2v9h-2V5.8L161.5,5.8z"
		/>
	<path fill="#201600" d="M178.4,19.3c0-0.7,0.5-1.2,1.2-1.2c0.7,0,1.2,0.5,1.2,1.2c0,0.7-0.5,1.2-1.2,1.2
		C178.9,20.5,178.4,19.9,178.4,19.3L178.4,19.3z"/>
	<path fill="#201600" d="M186.7,13.5c0.9,0,1.5-0.2,2-0.4c0.9-0.5,1.4-1.4,1.4-2.6c0-1.1-0.4-2.1-1.3-2.6c-0.5-0.3-1.1-0.5-2-0.5h-1
		v6H186.7L186.7,13.5z M183.8,5.8h3c1.4,0,2.4,0.2,3.2,0.7c1.4,0.7,2.2,2.1,2.2,4c0,1.7-0.7,3.3-2.5,4.1c-0.7,0.3-1.7,0.5-3,0.5
		h-0.8v5.2h-2V5.8L183.8,5.8z"/>
	<path fill="#201600" d="M194.8,20.4v-1.7c0.3,0.1,0.5,0.1,0.8,0.1c1.3,0,1.9-0.9,2.7-2.6l-5.1-10.3h2.2l3.9,8.3h0l3.6-8.3h2.1
		L200,16.9c-1.2,2.6-2.5,3.6-4.2,3.6C195.5,20.5,195.1,20.4,194.8,20.4L194.8,20.4z"/>
	<path fill="#00BFFF" d="M33.8,22.7c-3,2.1-6.6,3.4-10.5,3.4c-6.7,0-12.6-3.7-15.6-9.2L0,21.2c4.6,8.1,13.3,13.7,23.3,13.7
		c5.8,0,11.2-1.9,15.6-5.1L33.8,22.7L33.8,22.7z"/>
	<path fill="#007DC4" d="M40.9,11.6c-0.7,3.9-2.7,7.3-5.6,9.9l5.9,6.5c4.2-3.8,7.2-8.9,8.3-14.7L40.9,11.6L40.9,11.6z"/>
	<path fill="#2459AB" d="M49.8,10.3c0.1-0.7,0.1-1.4,0.1-2.1c0-2.2-0.3-4.3-0.8-6.4l-8.5,2.1c0.3,1.4,0.5,2.8,0.5,4.3
		c0,0.5,0,1-0.1,1.4L49.8,10.3L49.8,10.3z"/>
	<polygon fill="#007DC4" points="22.2,16.4 13.5,16.4 13.5,4.7 22.2,4.7 22.2,16.4 	"/>
	<polygon fill="#2459AB" points="33,16.4 24.3,16.4 24.3,0 33,0 33,16.4 	"/>
	<polygon fill="#007DC4" points="60.1,32.7 61.3,32.7 61.3,29.9 64.3,29.9 64.3,32.7 65.5,32.7 65.5,26.3 64.3,26.3 64.3,28.9 
		61.3,28.9 61.3,26.3 60.1,26.3 60.1,32.7 	"/>
	<path fill="#007DC4" d="M66.8,32.7H68l0.6-1.6h2.3l0.6,1.6h1.3l-2.6-6.4h-0.9L66.8,32.7L66.8,32.7z M68.9,30.1l0.5-1.3
		c0.1-0.2,0.1-0.3,0.2-0.4c0-0.1,0.1-0.2,0.1-0.3c0-0.1,0.1-0.2,0.1-0.2h0c0,0.1,0.1,0.2,0.1,0.4c0,0.2,0.1,0.4,0.2,0.6l0.4,1.3
		H68.9L68.9,30.1z"/>
	<path fill="#007DC4" d="M78.7,31.3c-0.2,0.1-0.5,0.2-0.7,0.3c-0.3,0.1-0.5,0.1-0.8,0.1c-0.3,0-0.6-0.1-0.9-0.2
		c-0.3-0.1-0.5-0.3-0.7-0.5c-0.2-0.2-0.3-0.4-0.4-0.7c-0.1-0.3-0.1-0.6-0.1-0.9c0-0.3,0-0.6,0.1-0.9c0.1-0.3,0.2-0.5,0.4-0.7
		c0.2-0.2,0.4-0.4,0.7-0.5c0.3-0.1,0.6-0.2,0.9-0.2c0.3,0,0.6,0,0.9,0.1c0.3,0.1,0.5,0.2,0.8,0.3v-1.1c-0.2-0.1-0.4-0.2-0.7-0.2
		c-0.3-0.1-0.6-0.1-0.9-0.1c-0.4,0-0.8,0.1-1.1,0.2c-0.3,0.1-0.7,0.3-0.9,0.5c-0.3,0.2-0.5,0.4-0.7,0.7c-0.2,0.3-0.3,0.6-0.4,0.9
		c-0.1,0.3-0.2,0.7-0.2,1.1c0,0.5,0.1,0.9,0.2,1.3c0.1,0.4,0.3,0.7,0.6,1c0.3,0.3,0.6,0.5,1,0.7c0.4,0.2,0.9,0.2,1.4,0.2
		c0.2,0,0.4,0,0.7,0c0.2,0,0.4-0.1,0.7-0.2c0.2-0.1,0.5-0.2,0.7-0.3L78.7,31.3L78.7,31.3z"/>
	<polygon fill="#007DC4" points="81.8,32.7 82.9,32.7 82.9,27.3 84.6,27.3 84.9,26.3 79.9,26.3 79.9,27.3 81.8,27.3 81.8,32.7 	"/>
	<path fill="#007DC4" d="M86.2,32.7h1.2v-2.2h0.3c0.3,0,0.5,0,0.8-0.1c0.2,0,0.4-0.1,0.6-0.2c0.3-0.1,0.5-0.3,0.7-0.5
		c0.2-0.2,0.3-0.4,0.4-0.7c0.1-0.2,0.1-0.5,0.1-0.7c0-0.4-0.1-0.8-0.3-1.1c-0.2-0.3-0.4-0.5-0.8-0.7c-0.2-0.1-0.4-0.2-0.6-0.2
		c-0.2,0-0.5-0.1-0.8-0.1h-1.5V32.7L86.2,32.7z M87.3,29.5v-2.3h0.3c0.2,0,0.3,0,0.5,0c0.1,0,0.2,0.1,0.3,0.1
		c0.2,0.1,0.3,0.2,0.4,0.4c0.1,0.2,0.1,0.4,0.1,0.6c0,0.2,0,0.4-0.1,0.6c-0.1,0.2-0.2,0.3-0.4,0.4c-0.1,0-0.2,0.1-0.3,0.1
		c-0.1,0-0.3,0-0.4,0H87.3L87.3,29.5z"/>
	<path fill="#007DC4" d="M94.8,32.8c0.5,0,0.9-0.1,1.3-0.2c0.4-0.2,0.7-0.4,1-0.7c0.3-0.3,0.5-0.6,0.7-1c0.2-0.4,0.2-0.8,0.2-1.3
		c0-0.5-0.1-0.9-0.2-1.3c-0.2-0.4-0.4-0.7-0.7-1c-0.3-0.3-0.6-0.5-1-0.7c-0.4-0.2-0.8-0.2-1.3-0.2c-0.5,0-0.9,0.1-1.3,0.2
		s-0.7,0.4-1,0.7c-0.3,0.3-0.5,0.6-0.7,1c-0.2,0.4-0.2,0.8-0.2,1.3c0,0.5,0.1,0.9,0.2,1.3c0.2,0.4,0.4,0.7,0.7,1
		c0.3,0.3,0.6,0.5,1,0.7C93.9,32.7,94.3,32.7,94.8,32.8L94.8,32.8z M94.8,31.8c-0.4,0-0.7-0.1-1-0.3c-0.3-0.2-0.5-0.4-0.7-0.8
		c-0.2-0.3-0.2-0.7-0.2-1.2c0-0.5,0.1-0.9,0.2-1.2c0.2-0.3,0.4-0.6,0.7-0.8c0.3-0.2,0.6-0.3,1-0.3c0.4,0,0.8,0.1,1,0.3
		c0.3,0.2,0.5,0.4,0.7,0.8c0.2,0.3,0.2,0.8,0.2,1.2c0,0.4,0,0.7-0.1,1c-0.1,0.3-0.2,0.5-0.4,0.7c-0.2,0.2-0.4,0.3-0.6,0.4
		C95.4,31.7,95.1,31.8,94.8,31.8L94.8,31.8z"/>
	<path fill="#007DC4" d="M99.7,32.7h1.1l2.7-3.6c0.1-0.2,0.3-0.3,0.4-0.5c0.1-0.2,0.2-0.3,0.3-0.5h0c0,0.1,0,0.3,0,0.4
		c0,0.2,0,0.3,0,0.5v3.6h1.2v-6.4h-1.2l-2.6,3.5c-0.1,0.2-0.3,0.4-0.4,0.5c-0.1,0.2-0.2,0.3-0.3,0.5h0c0-0.2,0-0.3,0-0.5
		c0-0.2,0-0.4,0-0.5v-3.4h-1.2V32.7L99.7,32.7z M102.6,26c0.3,0,0.5,0,0.8-0.1c0.2-0.1,0.4-0.2,0.6-0.3c0.2-0.1,0.3-0.3,0.3-0.5
		c0.1-0.2,0.1-0.4,0.1-0.7h-1c0,0.1,0,0.3-0.1,0.4c-0.1,0.1-0.1,0.2-0.3,0.3c-0.1,0.1-0.3,0.1-0.5,0.1c-0.2,0-0.3,0-0.5-0.1
		c-0.1-0.1-0.2-0.2-0.3-0.3c-0.1-0.1-0.1-0.3-0.1-0.4h-1c0,0.2,0,0.5,0.1,0.7c0.1,0.2,0.2,0.4,0.3,0.5c0.1,0.1,0.3,0.3,0.6,0.3
		C102,26,102.3,26,102.6,26L102.6,26L102.6,26z"/>
	<polygon fill="#007DC4" points="112.6,32.7 113.7,32.7 113.7,29.9 116.8,29.9 116.8,32.7 117.9,32.7 117.9,26.3 116.8,26.3 
		116.8,28.9 113.7,28.9 113.7,26.3 112.6,26.3 112.6,32.7 	"/>
	<path fill="#007DC4" d="M119.2,32.7h1.2l0.6-1.6h2.3l0.6,1.6h1.3l-2.6-6.4h-0.9L119.2,32.7L119.2,32.7z M121.4,30.1l0.5-1.3
		c0.1-0.2,0.1-0.3,0.2-0.4c0-0.1,0.1-0.2,0.1-0.3c0-0.1,0.1-0.2,0.1-0.2h0c0,0.1,0.1,0.2,0.1,0.4c0,0.2,0.1,0.4,0.2,0.6l0.4,1.3
		H121.4L121.4,30.1z"/>
	<path fill="#007DC4" d="M131.7,32.7h1.2v-2.2h0.3c0.3,0,0.5,0,0.8-0.1c0.2,0,0.4-0.1,0.6-0.2c0.3-0.1,0.5-0.3,0.7-0.5
		c0.2-0.2,0.3-0.4,0.4-0.7c0.1-0.2,0.1-0.5,0.1-0.7c0-0.4-0.1-0.8-0.3-1.1c-0.2-0.3-0.4-0.5-0.8-0.7c-0.2-0.1-0.4-0.2-0.6-0.2
		c-0.2,0-0.5-0.1-0.8-0.1h-1.5V32.7L131.7,32.7z M132.8,29.5v-2.3h0.3c0.2,0,0.3,0,0.5,0c0.1,0,0.2,0.1,0.3,0.1
		c0.2,0.1,0.3,0.2,0.4,0.4c0.1,0.2,0.1,0.4,0.1,0.6c0,0.2,0,0.4-0.1,0.6c-0.1,0.2-0.2,0.3-0.4,0.4c-0.1,0-0.2,0.1-0.3,0.1
		c-0.1,0-0.3,0-0.4,0H132.8L132.8,29.5z"/>
	<polygon fill="#007DC4" points="137.3,32.7 140.9,32.7 140.9,31.7 138.5,31.7 138.5,29.9 140.5,29.9 140.5,28.9 138.5,28.9 
		138.5,27.3 140.5,27.3 140.9,26.3 137.3,26.3 137.3,32.7 	"/>
	<path fill="#007DC4" d="M144.1,32.8c0.4,0,0.8,0,1.1-0.1c0.3-0.1,0.6-0.2,0.8-0.4c0.2-0.2,0.4-0.4,0.5-0.6c0.1-0.2,0.2-0.5,0.2-0.8
		c0-0.3,0-0.5-0.1-0.7c-0.1-0.2-0.2-0.4-0.4-0.5c-0.2-0.1-0.4-0.2-0.7-0.3v0c0.3-0.1,0.6-0.3,0.8-0.6c0.2-0.2,0.3-0.5,0.3-0.9
		c0-0.2,0-0.4-0.1-0.6c-0.1-0.2-0.2-0.4-0.4-0.5c-0.2-0.2-0.4-0.3-0.7-0.4c-0.3-0.1-0.6-0.1-1-0.1c-0.3,0-0.5,0-0.8,0.1
		c-0.2,0-0.5,0.1-0.7,0.2c-0.2,0.1-0.4,0.1-0.5,0.2l0.3,0.9c0.2-0.1,0.5-0.2,0.7-0.3c0.2-0.1,0.5-0.1,0.7-0.1c0.3,0,0.5,0,0.6,0.1
		c0.2,0.1,0.3,0.2,0.4,0.3c0.1,0.1,0.1,0.3,0.1,0.5c0,0.3-0.1,0.5-0.4,0.7c-0.2,0.2-0.6,0.2-1.1,0.2c-0.1,0-0.2,0-0.3,0
		c-0.1,0-0.2,0-0.3,0v1c0.1,0,0.2,0,0.3,0c0.1,0,0.2,0,0.3,0c0.1,0,0.1,0,0.2,0c0.3,0,0.5,0,0.7,0.1c0.2,0.1,0.4,0.2,0.5,0.3
		c0.1,0.1,0.2,0.3,0.2,0.5c0,0.2-0.1,0.4-0.2,0.5c-0.1,0.1-0.3,0.3-0.5,0.3c-0.2,0.1-0.4,0.1-0.7,0.1c-0.3,0-0.6,0-0.8-0.1
		c-0.3-0.1-0.5-0.1-0.7-0.2v1c0.2,0.1,0.5,0.2,0.8,0.2C143.4,32.7,143.7,32.7,144.1,32.8L144.1,32.8z"/>
	<path fill="#007DC4" d="M148.8,32.7c0.3,0,0.6-0.1,0.8-0.2c0.2-0.1,0.5-0.3,0.7-0.5c0.2-0.2,0.4-0.6,0.6-1l2.2-4.8h-1.3l-1.4,3.3h0
		l-1.6-3.3h-1.3l2.3,4.5c-0.1,0.2-0.2,0.3-0.2,0.4c-0.1,0.1-0.2,0.2-0.2,0.3c-0.1,0.1-0.2,0.1-0.3,0.2c-0.1,0-0.2,0.1-0.4,0.1
		c-0.1,0-0.1,0-0.2,0c-0.1,0-0.1,0-0.2,0v1c0.1,0,0.1,0,0.2,0c0.1,0,0.1,0,0.2,0C148.7,32.7,148.8,32.7,148.8,32.7L148.8,32.7z"/>
	<path fill="#007DC4" d="M154.1,32.7c0.3,0,0.6-0.1,0.8-0.2c0.2-0.1,0.4-0.3,0.6-0.5c0.1-0.2,0.2-0.4,0.4-0.7
		c0.1-0.3,0.2-0.6,0.3-0.9c0.1-0.3,0.2-0.7,0.2-1c0.1-0.4,0.1-0.7,0.2-1.1c0.1-0.4,0.1-0.7,0.1-1.1h1.2v5.4h1.2v-6.4h-3.4
		c0,0.4-0.1,0.8-0.1,1.2c-0.1,0.4-0.1,0.8-0.2,1.2c-0.1,0.4-0.1,0.7-0.2,1.1c-0.1,0.3-0.2,0.6-0.3,0.9c-0.1,0.3-0.2,0.5-0.3,0.7
		c-0.1,0.1-0.2,0.2-0.3,0.3c-0.1,0.1-0.2,0.1-0.4,0.1c0,0,0,0-0.1,0c0,0-0.1,0-0.1,0v1.1c0,0,0.1,0,0.1,0
		C154,32.7,154,32.7,154.1,32.7C154.1,32.7,154.1,32.7,154.1,32.7L154.1,32.7z"/>
	<path fill="#007DC4" d="M162.3,31.7v-2.1h0.5c0.2,0,0.4,0,0.6,0c0.2,0,0.3,0.1,0.5,0.2c0.1,0.1,0.2,0.2,0.3,0.3
		c0.1,0.1,0.1,0.3,0.1,0.5c0,0.4-0.1,0.6-0.3,0.8c-0.2,0.2-0.6,0.3-1,0.3H162.3L162.3,31.7z M161.2,32.7h1.7c0.5,0,0.9-0.1,1.2-0.2
		c0.3-0.1,0.6-0.2,0.8-0.4c0.2-0.2,0.3-0.4,0.4-0.6c0.1-0.2,0.1-0.5,0.1-0.8c0-0.4-0.1-0.7-0.3-1c-0.2-0.3-0.4-0.5-0.7-0.6
		c-0.2-0.1-0.5-0.2-0.8-0.2c-0.3-0.1-0.6-0.1-0.9-0.1h-0.4v-2.4h-1.2V32.7L161.2,32.7z"/>
	<polygon fill="#007DC4" points="168.3,32.7 169.5,32.7 169.5,27.3 171.2,27.3 171.5,26.3 166.5,26.3 166.5,27.3 168.3,27.3 
		168.3,32.7 	"/>
	<path fill="#007DC4" d="M172,32.7h1.2l0.6-1.6h2.3l0.6,1.6h1.3l-2.6-6.4h-0.9L172,32.7L172,32.7z M174.2,30.1l0.5-1.3
		c0.1-0.2,0.1-0.3,0.2-0.4c0-0.1,0.1-0.2,0.1-0.3c0-0.1,0.1-0.2,0.1-0.2h0c0,0.1,0.1,0.2,0.1,0.4c0,0.2,0.1,0.4,0.2,0.6l0.4,1.3
		H174.2L174.2,30.1z"/>
	<polygon fill="#007DC4" points="180.5,32.7 181.7,32.7 181.7,27.3 183.4,27.3 183.7,26.3 178.6,26.3 178.6,27.3 180.5,27.3 
		180.5,32.7 	"/>
</g>
</svg>
