<?xml version="1.0" encoding="utf-8"?>
<!-- Generator: Adobe Illustrator 18.0.0, SVG Export Plug-In . SVG Version: 6.00 Build 0)  -->
<!DOCTYPE svg PUBLIC "-//W3C//DTD SVG 1.1//EN" "http://www.w3.org/Graphics/SVG/1.1/DTD/svg11.dtd">
<svg version="1.1" id="Слой_1" xmlns="http://www.w3.org/2000/svg" xmlns:xlink="http://www.w3.org/1999/xlink" x="0px" y="0px"
	 viewBox="0 0 83 86" enable-background="new 0 0 83 86" xml:space="preserve">
<g>
	
		<path fill="none" stroke="#FFFFFF" stroke-width="2" stroke-linecap="round" stroke-linejoin="round" stroke-miterlimit="22.9256" d="
		M10.5,85c0,0-13.3-45.2-8.5-62.1c8.3-29.2,70.6-29.2,78.9,0C85.7,39.8,72.8,85,72.8,85l-12-2.4c-3.2-0.6-2.4,0-1.9-3.8
		c1.4-9.8,5-38,1.3-43.8c-5.2-8.2-32-8.2-37.3,0c-3.8,6,0.4,36.4,1.7,44.9c0.4,2.6,0.9,2.1-1.5,2.6L10.5,85L10.5,85z"/>
	
		<line fill="none" stroke="#FFFFFF" stroke-width="2" stroke-linecap="round" stroke-linejoin="round" stroke-miterlimit="22.9256" x1="7.3" y1="72.8" x2="22.9" y2="69.7"/>
	
		<line fill="none" stroke="#FFFFFF" stroke-width="2" stroke-linecap="round" stroke-linejoin="round" stroke-miterlimit="22.9256" x1="60.2" y1="70.5" x2="75.7" y2="73.7"/>
</g>
</svg>
