<?xml version="1.0" encoding="utf-8"?>
<!-- Generator: Adobe Illustrator 18.0.0, SVG Export Plug-In . SVG Version: 6.00 Build 0)  -->
<!DOCTYPE svg PUBLIC "-//W3C//DTD SVG 1.1//EN" "http://www.w3.org/Graphics/SVG/1.1/DTD/svg11.dtd">
<svg version="1.1" id="Слой_1" xmlns="http://www.w3.org/2000/svg" xmlns:xlink="http://www.w3.org/1999/xlink" x="0px" y="0px"
	 viewBox="0 0 14.1 26.1" enable-background="new 0 0 14.1 26.1" xml:space="preserve">
<g>
	<path fill="none" stroke="#999999" stroke-width="0.1423" stroke-miterlimit="22.9256" d="M2.1,0.1h10c1.1,0,2,0.9,2,2V24
		c0,1.1-0.9,2-2,2h-10c-1.1,0-2-0.9-2-2V2.1C0.1,1,1,0.1,2.1,0.1L2.1,0.1z M0.1,2.3h14 M0.1,20.8h14"/>
	<path fill="none" stroke="#999999" stroke-width="0.1281" stroke-miterlimit="22.9256" d="M7.1,22.2c0.6,0,1.1,0.5,1.1,1.1
		c0,0.6-0.5,1.1-1.1,1.1c-0.6,0-1.1-0.5-1.1-1.1C6,22.6,6.5,22.2,7.1,22.2L7.1,22.2z"/>
</g>
</svg>
