<?xml version="1.0" encoding="utf-8"?>
<!-- Generator: Adobe Illustrator 18.0.0, SVG Export Plug-In . SVG Version: 6.00 Build 0)  -->
<!DOCTYPE svg PUBLIC "-//W3C//DTD SVG 1.1//EN" "http://www.w3.org/Graphics/SVG/1.1/DTD/svg11.dtd">
<svg version="1.1" id="Слой_1" xmlns="http://www.w3.org/2000/svg" xmlns:xlink="http://www.w3.org/1999/xlink" x="0px" y="0px"
	 viewBox="0 0 25 35" enable-background="new 0 0 25 35" xml:space="preserve">
<g>
	<path fill="none" stroke="#333333" stroke-linecap="round" stroke-linejoin="round" stroke-miterlimit="22.9256" d="M12.1,26
		c-1-0.6-2-1.3-3-1.9c-1-0.6-2-1.3-3-1.9c-0.8,1.3-1.7,2.5-2.6,3.7c-0.9,1.2-1.9,2.4-2.9,3.5C1.7,30.3,2.9,31,4,31.7
		c1.3,0.8,2.7,1.7,4,2.5l0,0c0.8,0.5,2,0.3,2.6-0.4c3-3.9,5.8-7.9,8.1-12.2c2.3-4.3,4.2-8.9,5.7-13.7c0.3-0.9-0.1-2.2-0.9-2.7h0
		c-1.2-0.7-2.4-1.5-3.7-2.3c-1.3-0.8-2.6-1.6-3.8-2.4c-0.4,1.5-0.9,3-1.4,4.5c-0.5,1.5-1.1,2.9-1.7,4.3c1,0.6,2,1.3,3,1.9
		c1,0.6,2,1.3,3,1.9c-1,2.2-2,4.5-3.2,6.6C14.7,21.9,13.4,24,12.1,26L12.1,26z"/>
</g>
</svg>
