<?xml version="1.0" encoding="utf-8"?>
<!-- Generator: Adobe Illustrator 18.0.0, SVG Export Plug-In . SVG Version: 6.00 Build 0)  -->
<!DOCTYPE svg PUBLIC "-//W3C//DTD SVG 1.1//EN" "http://www.w3.org/Graphics/SVG/1.1/DTD/svg11.dtd">
<svg version="1.1" id="Слой_1" xmlns="http://www.w3.org/2000/svg" xmlns:xlink="http://www.w3.org/1999/xlink" x="0px" y="0px"
	 viewBox="0 0 49.3 47.3" enable-background="new 0 0 49.3 47.3" xml:space="preserve">
<g>
	
		<path fill="none" stroke="#fff" stroke-width="0.3322" stroke-linecap="round" stroke-linejoin="round" stroke-miterlimit="22.9256" d="
		M0.2,16.4L14.7,1.7l8-1.6l-1.6,8.1l-3.5,3.6l29.8,30.1l-5.2,5.2L12.4,17.1l-5.8,5.9L0.2,16.4L0.2,16.4z M32.9,24.3l5.4-5.6
		c2.8,1.5,6.4,1.1,8.7-1.3c2.2-2.2,2.7-5.6,1.5-8.4L43,14.6l-3.7-3.7l5.5-5.6c-2.8-1.3-6.1-0.9-8.4,1.4c-2.3,2.4-2.8,6-1.3,8.8
		l-5.4,5.5 M21.7,29.3l-3.6,3.6c-2.8-1.5-6.4-1.1-8.7,1.2c-2.3,2.3-2.7,5.7-1.4,8.5l5.5-5.6l3.7,3.7l-5.5,5.5
		c2.7,1.3,6.1,0.8,8.3-1.5c2.3-2.4,2.8-6,1.3-8.8l3.5-3.6"/>
</g>
</svg>
