<?xml version="1.0" encoding="utf-8"?>
<!-- Generator: Adobe Illustrator 18.0.0, SVG Export Plug-In . SVG Version: 6.00 Build 0)  -->
<!DOCTYPE svg PUBLIC "-//W3C//DTD SVG 1.1//EN" "http://www.w3.org/Graphics/SVG/1.1/DTD/svg11.dtd">
<svg version="1.1" id="Слой_1" xmlns="http://www.w3.org/2000/svg" xmlns:xlink="http://www.w3.org/1999/xlink" x="0px" y="0px"
	 viewBox="0 0 273.9 191.2" enable-background="new 0 0 273.9 191.2" xml:space="preserve">
<g>
	<path fill="#F7E357" d="M185.3,124.6c-16.2,11.8-36.1,18.7-57.7,18.7c-36.8,0-69-20.4-85.9-50.4L0,116.2
		c25.1,44.7,72.9,75,127.7,75c32,0,61.6-10.4,85.7-27.9L185.3,124.6L185.3,124.6z M224.3,63.4c-4.1,21.4-15.1,40.3-30.6,54.4
		l32.1,35.5c23.1-20.9,39.4-49.1,45.5-80.8L224.3,63.4L224.3,63.4z M273.4,56.5c0.3-3.8,0.5-7.7,0.5-11.6c0-12.1-1.5-23.8-4.3-35.1
		l-46.5,11.5c1.9,7.6,2.9,15.5,2.9,23.6c0,2.6-0.1,5.2-0.3,7.8L273.4,56.5L273.4,56.5z M121.9,89.8H74v-64h47.9V89.8L121.9,89.8z
		 M181.3,89.8h-47.9V0h47.9V89.8L181.3,89.8z"/>
</g>
</svg>
