<?xml version="1.0" encoding="utf-8"?>
<!-- Generator: Adobe Illustrator 18.0.0, SVG Export Plug-In . SVG Version: 6.00 Build 0)  -->
<!DOCTYPE svg PUBLIC "-//W3C//DTD SVG 1.1//EN" "http://www.w3.org/Graphics/SVG/1.1/DTD/svg11.dtd">
<svg version="1.1" id="Слой_1" xmlns="http://www.w3.org/2000/svg" xmlns:xlink="http://www.w3.org/1999/xlink" x="0px" y="0px"
	 viewBox="0 0 83 57.8" enable-background="new 0 0 83 57.8" xml:space="preserve">
<path fill="#EBB739" d="M56.1,37.7c-4.9,3.6-10.9,5.7-17.5,5.7c-11.2,0-20.9-6.2-26-15.3L0,35.1c7.6,13.5,22.1,22.7,38.7,22.7
	c9.7,0,18.7-3.1,26-8.4L56.1,37.7z"/>
<path fill="#DA8034" d="M67.9,19.1c-1.2,6.5-4.6,12.2-9.3,16.5l9.7,10.7c7-6.3,11.9-14.9,13.8-24.5L67.9,19.1z"/>
<path fill="#CE432E" d="M82.8,17.1c0.1-1.2,0.2-2.3,0.2-3.5c0-3.7-0.5-7.2-1.3-10.6L67.6,6.4c0.6,2.3,0.9,4.7,0.9,7.2
	c0,0.8,0,1.6-0.1,2.4L82.8,17.1z"/>
<rect x="22.2" y="7.8" fill="#EBB739" width="14.5" height="19.4"/>
<rect x="40.2" y="0" fill="#DA8034" width="14.5" height="27.2"/>
</svg>
