<?xml version="1.0" encoding="utf-8"?>
<!-- Generator: Adobe Illustrator 18.0.0, SVG Export Plug-In . SVG Version: 6.00 Build 0)  -->
<!DOCTYPE svg PUBLIC "-//W3C//DTD SVG 1.1//EN" "http://www.w3.org/Graphics/SVG/1.1/DTD/svg11.dtd">
<svg version="1.1" id="Слой_1" xmlns="http://www.w3.org/2000/svg" xmlns:xlink="http://www.w3.org/1999/xlink" x="0px" y="0px"
	 viewBox="0 0 96 95" enable-background="new 0 0 96 95" xml:space="preserve">
<g>
	<path fill-rule="evenodd" clip-rule="evenodd" fill="#F5D917" d="M35.4,0.2c-3.5,0.8-5.4,3.5-7.2,5.4c-2.1,2.1-4.1,3.2-8.2,4.2
		c-10.5,2.5-8.3,6.4-11.2,13.6c-2.3,5.8-10.2,7.3-8.6,15.6C1,42.5,2.7,45.5,2,49.3C0.4,58-2.9,59,5.5,66.9c6.4,6,3.4,12.7,8.7,16
		c2.7,1.7,6.2,1.9,9.3,3.1c6.1,2.3,7.5,10.2,15.9,8.6c3.6-0.7,6.7-2.3,10.7-1.6c7.1,1.3,9.8,4.5,16.1-2.1c3.2-3.4,4.8-4.7,9.8-5.9
		c3.9-0.9,6.3-1.7,8-4.4c1.6-2.4,2-6.4,3.1-9.2c2.4-5.9,10.4-7.3,8.6-15.8c-0.7-3.6-2.3-6.4-1.5-10.5c0.6-3.2,2.6-7.4,1.5-10.7
		c-1-3-3.8-5.2-5.5-6.9c-6.3-6.3-2.9-12.4-8.8-15.9C78.6,10.1,75,9.9,72,8.6c-6-2.7-7-10.1-15.9-8.3C52.6,1,49.8,2.6,45.8,1.8
		C42.4,1.1,39.1-0.6,35.4,0.2L35.4,0.2z"/>
	<path fill-rule="evenodd" clip-rule="evenodd" fill="#F7E35C" d="M48.1,92.9c0.7,0,1.3,0,2,0.2c7.1,1.3,9.8,4.5,16.1-2.1
		c3.2-3.4,4.8-4.7,9.8-5.9c3.9-0.9,6.3-1.7,8-4.4c1.6-2.4,2-6.4,3.1-9.2c2.4-5.9,10.4-7.3,8.6-15.8c-0.7-3.6-2.3-6.4-1.5-10.5
		c0.6-3.2,2.6-7.4,1.5-10.7c-1-3-3.8-5.2-5.5-6.9c-6.3-6.3-2.9-12.4-8.8-15.9C78.6,10.1,75,9.9,72,8.6c-6-2.7-7-10.1-15.9-8.3
		C53.3,0.9,50.9,2,48.1,2V92.9L48.1,92.9z"/>
	<path fill-rule="evenodd" clip-rule="evenodd" fill="#FFFFFF" d="M48,9c21.5,0,38.9,17.2,38.9,38.5C86.9,68.8,69.5,86,48,86
		C26.5,86,9.1,68.8,9.1,47.5C9.1,26.2,26.5,9,48,9L48,9z"/>
	<path fill-rule="evenodd" clip-rule="evenodd" fill="#F5D917" d="M48,10.6c20.6,0,37.2,16.5,37.2,36.9c0,20.4-16.7,36.9-37.2,36.9
		c-20.6,0-37.2-16.5-37.2-36.9C10.8,27.1,27.4,10.6,48,10.6L48,10.6z"/>
	<path fill-rule="evenodd" clip-rule="evenodd" fill="#F7E35C" d="M48.1,10.6c20.5,0,37.2,16.5,37.2,36.9
		c0,20.3-16.6,36.8-37.2,36.9V10.6L48.1,10.6z"/>
	
		<path fill="none" stroke="#FFFFFF" stroke-width="2" stroke-linecap="round" stroke-linejoin="round" stroke-miterlimit="22.9256" d="
		M40.6,26.4c2.9,0,5.3,2.3,5.3,5.2c0,2.9-2.4,5.2-5.3,5.2c-2.9,0-5.3-2.3-5.3-5.2C35.3,28.7,37.7,26.4,40.6,26.4L40.6,26.4z
		 M47.3,43.3v10.5v1.9v15.6h-4.6c0-5.2,0-10.4,0-15.6c-0.4-0.7-1.2-1-1.8-1c-0.6,0-1.7,0.1-1.9,1v15.5h-4.6V55.7v-1.9v-9.5
		 M47.5,53.9c3.8,0,3.9-2.1,3.9-4.5v-7.7c0-2.6-1.5-3.6-4.1-3.6 M34.4,38.2c0,0,1.9,3.1,6.2,3.1c4.4,0,6.6-3.1,6.6-3.1 M34.2,53.9
		c-3.8,0-3.9-2.1-3.9-4.5v-7.7c0-2.6,1.5-3.6,4.1-3.6"/>
	
		<line fill="none" stroke="#FFFFFF" stroke-width="2" stroke-linecap="round" stroke-linejoin="round" stroke-miterlimit="22.9256" x1="57.9" y1="23.7" x2="57.9" y2="40.6"/>
	
		<line fill="none" stroke="#FFFFFF" stroke-width="2" stroke-linecap="round" stroke-linejoin="round" stroke-miterlimit="22.9256" x1="66.4" y1="32.1" x2="49.4" y2="32.1"/>
</g>
</svg>
