<?xml version="1.0" encoding="utf-8"?>
<!-- Generator: Adobe Illustrator 18.0.0, SVG Export Plug-In . SVG Version: 6.00 Build 0)  -->
<!DOCTYPE svg PUBLIC "-//W3C//DTD SVG 1.1//EN" "http://www.w3.org/Graphics/SVG/1.1/DTD/svg11.dtd">
<svg version="1.1" id="Слой_1" xmlns="http://www.w3.org/2000/svg" xmlns:xlink="http://www.w3.org/1999/xlink" x="0px" y="0px"
	 viewBox="0 0 24.1 20.1" enable-background="new 0 0 24.1 20.1" xml:space="preserve">
<g>
	<path fill="none" stroke="#999999" stroke-width="0.1423" stroke-miterlimit="22.9256" d="M1,0.1h22.2c0.5,0,0.9,0.4,0.9,0.9v13.7
		h-24V1C0.1,0.5,0.5,0.1,1,0.1L1,0.1z"/>
	<path fill="none" stroke="#999999" stroke-width="0.1422" stroke-miterlimit="22.9256" d="M1.1,0.1H23c0.6,0,1.1,0.5,1.1,1.1v15
		c0,0.6-0.5,1.1-1.1,1.1H1.1c-0.6,0-1.1-0.5-1.1-1.1v-15C0.1,0.6,0.6,0.1,1.1,0.1L1.1,0.1z"/>
	
		<path fill="none" stroke="#999999" stroke-width="0.1422" stroke-linecap="round" stroke-linejoin="round" stroke-miterlimit="22.9256" d="
		M8.2,17.3c1.3,0,2.6,0,3.8,0s2.6,0,3.8,0c0.2,0.5,0.4,0.9,0.7,1.4c0.2,0.5,0.4,0.9,0.7,1.4c-1.7,0-3.5,0-5.2,0c-1.7,0-3.5,0-5.2,0
		c0.2-0.5,0.4-0.9,0.7-1.4C7.8,18.2,8,17.8,8.2,17.3L8.2,17.3z"/>
</g>
</svg>
